<?xml version="1.0" encoding="utf-8"?>
<!-- Generator: Adobe Illustrator 20.1.0, SVG Export Plug-In . SVG Version: 6.00 Build 0)  -->
<!DOCTYPE svg PUBLIC "-//W3C//DTD SVG 1.1//EN" "http://www.w3.org/Graphics/SVG/1.1/DTD/svg11.dtd">
<svg version="1.1" id="Layer_1" xmlns="http://www.w3.org/2000/svg" xmlns:xlink="http://www.w3.org/1999/xlink" x="0px" y="0px"
	 viewBox="0 0 470 101.4" style="enable-background:new 0 0 470 101.4;" xml:space="preserve">
<style type="text/css">
	.st0{fill:url(#SVGID_1_);}
	.st1{fill:url(#SVGID_2_);}
	.st2{fill:#BBBDBF;}
	.st3{fill:#0F3F76;}
	.st4{fill:#FFFFFF;}
	.st5{fill:url(#SVGID_3_);}
	.st6{fill:url(#SVGID_4_);}
</style>
<g>
	<g>
		<linearGradient id="SVGID_1_" gradientUnits="userSpaceOnUse" x1="70.5655" y1="29.7597" x2="144.9475" y2="29.7597">
			<stop  offset="9.677419e-02" style="stop-color:#19A586"/>
			<stop  offset="0.2563" style="stop-color:#189A84"/>
			<stop  offset="0.538" style="stop-color:#157C80"/>
			<stop  offset="0.9064" style="stop-color:#104C78"/>
			<stop  offset="1" style="stop-color:#0F3F76"/>
		</linearGradient>
		<path class="st0" d="M83.1,45c3.8-10.8,14-18.5,26-18.5c8.8,0,16.7,4.1,21.9,10.7h14c-6.7-14.4-21.5-23.5-37.8-22.7
			C89.2,15.4,74.6,28.3,70.6,45H83.1z"/>
		<linearGradient id="SVGID_2_" gradientUnits="userSpaceOnUse" x1="43.2522" y1="70.914" x2="148.7359" y2="70.914">
			<stop  offset="9.677419e-02" style="stop-color:#19A586"/>
			<stop  offset="0.2563" style="stop-color:#189A84"/>
			<stop  offset="0.538" style="stop-color:#157C80"/>
			<stop  offset="0.9064" style="stop-color:#104C78"/>
			<stop  offset="1" style="stop-color:#0F3F76"/>
		</linearGradient>
		<path class="st1" d="M43.3,48.1c0,6.6,5.4,12,12,12h80.8c-3,13.4-15.7,23.1-30.2,21.4C95.2,80.3,86.3,72.8,83,63H70.5
			c4.2,18.2,20.8,31.6,40.4,30.7c20.8-0.9,37.8-19.6,37.8-40.4v-5.2H43.3z"/>
	</g>
	<path class="st2" d="M86,17.9H18c0,6.6,5.4,12,12,12h43.6C76.9,25.2,81.1,21.1,86,17.9z"/>
	<path class="st2" d="M67.3,44.3c1-4,2.5-7.8,4.4-11.2H28.8c0,6.6,5.4,12,12,12h26.3L67.3,44.3z"/>
</g>
<g>
	<path class="st3" d="M180.4,52.6c1,0,1.8-0.1,2.6-0.3c0.8-0.2,1.5-0.4,2.1-0.7V47h-3c-0.4,0-0.8-0.1-1.1-0.4
		c-0.3-0.2-0.4-0.5-0.4-0.9v-3.9h10.9v12.9c-0.8,0.6-1.6,1.1-2.4,1.5c-0.8,0.4-1.8,0.8-2.7,1c-1,0.3-2,0.5-3.1,0.6
		c-1.1,0.1-2.3,0.2-3.5,0.2c-2.2,0-4.3-0.4-6.2-1.2c-1.9-0.8-3.6-1.9-4.9-3.3c-1.4-1.4-2.5-3-3.3-5c-0.8-1.9-1.2-4-1.2-6.2
		c0-2.3,0.4-4.4,1.1-6.3s1.8-3.6,3.2-4.9c1.4-1.4,3.1-2.5,5.1-3.2c2-0.8,4.2-1.2,6.7-1.2c1.3,0,2.5,0.1,3.6,0.3
		c1.1,0.2,2.2,0.5,3.1,0.9c0.9,0.4,1.8,0.8,2.6,1.3c0.8,0.5,1.5,1.1,2.1,1.6l-2.1,3.1c-0.2,0.3-0.4,0.5-0.7,0.7
		c-0.3,0.2-0.6,0.3-0.9,0.3c-0.4,0-0.9-0.1-1.3-0.4c-0.6-0.3-1.1-0.6-1.6-0.9c-0.5-0.2-1-0.4-1.5-0.6c-0.5-0.2-1.1-0.3-1.6-0.3
		c-0.6-0.1-1.2-0.1-1.9-0.1c-1.3,0-2.5,0.2-3.6,0.7c-1.1,0.5-2,1.1-2.7,2c-0.8,0.9-1.3,1.9-1.7,3.1c-0.4,1.2-0.6,2.5-0.6,4
		c0,1.6,0.2,3.1,0.7,4.3c0.4,1.3,1.1,2.3,1.9,3.2c0.8,0.9,1.7,1.5,2.8,2C178,52.3,179.2,52.6,180.4,52.6z"/>
	<path class="st3" d="M205.1,46.4v11.3H198V27.1h10c2.2,0,4.1,0.2,5.7,0.7c1.6,0.5,2.8,1.1,3.8,1.9c1,0.8,1.7,1.8,2.2,2.9
		c0.4,1.1,0.7,2.3,0.7,3.6c0,1-0.1,1.9-0.4,2.8c-0.3,0.9-0.7,1.7-1.2,2.4c-0.5,0.7-1.2,1.4-1.9,2c-0.8,0.6-1.6,1.1-2.6,1.4
		c0.5,0.2,0.9,0.5,1.3,0.9c0.4,0.4,0.8,0.8,1.1,1.3l6.5,10.7h-6.4c-1.2,0-2-0.4-2.6-1.3l-5.1-8.9c-0.2-0.4-0.5-0.7-0.8-0.8
		c-0.3-0.2-0.7-0.3-1.3-0.3H205.1z M205.1,41.5h2.9c1,0,1.8-0.1,2.5-0.4c0.7-0.2,1.2-0.6,1.7-1c0.4-0.4,0.7-0.9,0.9-1.5
		c0.2-0.6,0.3-1.2,0.3-1.9c0-1.3-0.4-2.4-1.3-3.2c-0.9-0.8-2.2-1.1-4.1-1.1h-2.9V41.5z"/>
	<path class="st3" d="M256.6,57.7h-5.5c-0.6,0-1.1-0.1-1.5-0.4c-0.4-0.3-0.7-0.7-0.8-1.1l-1.8-5.3h-11.6l-1.8,5.3
		c-0.1,0.4-0.4,0.7-0.8,1.1c-0.4,0.3-0.9,0.5-1.5,0.5h-5.5l11.8-30.6h7.3L256.6,57.7z M236.9,46h8.4l-2.8-8.4
		c-0.2-0.5-0.4-1.2-0.6-1.9c-0.2-0.7-0.5-1.5-0.7-2.3c-0.2,0.9-0.5,1.6-0.7,2.4c-0.2,0.7-0.5,1.4-0.7,1.9L236.9,46z"/>
	<path class="st3" d="M265.7,27.1c0.2,0,0.4,0.1,0.6,0.2c0.2,0.1,0.3,0.2,0.5,0.3c0.2,0.1,0.3,0.3,0.5,0.6l14.5,18.4
		c-0.1-0.6-0.1-1.2-0.1-1.7c0-0.6,0-1.1,0-1.6V27.1h6.3v30.6h-3.7c-0.5,0-1-0.1-1.4-0.3c-0.4-0.2-0.7-0.5-1.1-0.9l-14.4-18.2
		c0,0.5,0.1,1.1,0.1,1.6c0,0.5,0,1,0,1.4v16.4h-6.3V27.1h3.7C265.2,27.1,265.5,27.1,265.7,27.1z"/>
	<path class="st3" d="M317.2,27.1v5.6h-8.6v25h-7.1v-25h-8.6v-5.6H317.2z"/>
</g>
<g>
	<path class="st2" d="M163.7,69.2h1.7c0.2,0,0.3,0,0.5,0.1s0.2,0.2,0.2,0.4l3.1,10.6c0.1,0.2,0.1,0.4,0.2,0.6c0,0.2,0.1,0.4,0.1,0.7
		c0-0.2,0.1-0.5,0.1-0.7c0-0.2,0.1-0.4,0.2-0.6l3.6-10.6c0-0.1,0.1-0.2,0.2-0.3c0.1-0.1,0.3-0.2,0.5-0.2h0.6c0.2,0,0.3,0,0.5,0.1
		c0.1,0.1,0.2,0.2,0.2,0.4l3.6,10.6c0.1,0.4,0.2,0.8,0.3,1.3c0-0.2,0.1-0.5,0.1-0.7c0-0.2,0.1-0.4,0.1-0.6l3.2-10.6
		c0-0.1,0.1-0.2,0.2-0.3c0.1-0.1,0.3-0.1,0.5-0.1h1.6l-4.7,15.2h-1.8l-3.9-11.6c-0.1-0.2-0.1-0.5-0.2-0.8c0,0.1-0.1,0.3-0.1,0.4
		c0,0.1-0.1,0.2-0.1,0.4l-3.9,11.6h-1.8L163.7,69.2z"/>
	<path class="st2" d="M194.3,78.3v6h-2v-6l-5.6-9.2h1.8c0.2,0,0.3,0,0.4,0.1c0.1,0.1,0.2,0.2,0.3,0.3l3.5,5.9
		c0.1,0.2,0.3,0.5,0.4,0.7c0.1,0.2,0.2,0.4,0.3,0.6c0.1-0.2,0.2-0.4,0.3-0.7c0.1-0.2,0.2-0.5,0.3-0.7l3.5-5.9
		c0.1-0.1,0.1-0.2,0.3-0.3s0.3-0.2,0.4-0.2h1.8L194.3,78.3z"/>
	<path class="st2" d="M211.1,71.6c-0.1,0.1-0.1,0.2-0.2,0.2c-0.1,0.1-0.2,0.1-0.3,0.1c-0.1,0-0.3-0.1-0.4-0.2
		c-0.2-0.1-0.4-0.3-0.6-0.4c-0.2-0.1-0.5-0.3-0.9-0.4s-0.8-0.2-1.2-0.2c-0.5,0-0.9,0.1-1.2,0.2c-0.4,0.1-0.6,0.3-0.9,0.5
		c-0.2,0.2-0.4,0.5-0.5,0.7c-0.1,0.3-0.2,0.6-0.2,0.9c0,0.4,0.1,0.8,0.3,1.1c0.2,0.3,0.5,0.5,0.8,0.7c0.3,0.2,0.7,0.4,1.2,0.5
		c0.4,0.1,0.9,0.3,1.3,0.4c0.5,0.2,0.9,0.3,1.3,0.5c0.4,0.2,0.8,0.4,1.2,0.7c0.3,0.3,0.6,0.7,0.8,1.1c0.2,0.4,0.3,1,0.3,1.6
		c0,0.7-0.1,1.3-0.3,1.9c-0.2,0.6-0.6,1.1-1,1.5c-0.4,0.4-1,0.8-1.6,1c-0.6,0.2-1.4,0.4-2.2,0.4c-1,0-1.9-0.2-2.7-0.5
		c-0.8-0.4-1.5-0.8-2.1-1.4l0.6-1c0.1-0.1,0.1-0.1,0.2-0.2c0.1-0.1,0.2-0.1,0.3-0.1c0.1,0,0.3,0.1,0.5,0.2c0.2,0.2,0.4,0.3,0.7,0.5
		c0.3,0.2,0.6,0.4,1,0.5c0.4,0.2,0.9,0.2,1.5,0.2c0.5,0,0.9-0.1,1.3-0.2c0.4-0.1,0.7-0.3,1-0.6s0.5-0.5,0.6-0.9
		c0.1-0.3,0.2-0.7,0.2-1.1c0-0.5-0.1-0.8-0.3-1.1c-0.2-0.3-0.5-0.5-0.8-0.7c-0.3-0.2-0.7-0.4-1.2-0.5c-0.4-0.1-0.9-0.3-1.3-0.4
		c-0.5-0.1-0.9-0.3-1.3-0.5c-0.4-0.2-0.8-0.4-1.2-0.7c-0.3-0.3-0.6-0.7-0.8-1.1c-0.2-0.5-0.3-1-0.3-1.7c0-0.5,0.1-1.1,0.3-1.6
		c0.2-0.5,0.5-0.9,0.9-1.3c0.4-0.4,0.9-0.7,1.5-0.9c0.6-0.2,1.3-0.4,2-0.4c0.8,0,1.6,0.1,2.3,0.4c0.7,0.3,1.3,0.7,1.8,1.2
		L211.1,71.6z"/>
	<path class="st2" d="M226.6,69.2v0.8c0,0.2-0.1,0.5-0.2,0.7l-8.6,12.1h8.7v1.7h-11.4v-0.8c0-0.2,0.1-0.4,0.2-0.6l8.6-12.1h-8.4
		v-1.7H226.6z"/>
	<path class="st2" d="M236.7,82.8c0.6,0,1.2-0.1,1.7-0.3c0.5-0.2,0.9-0.5,1.3-0.9c0.3-0.4,0.6-0.8,0.8-1.4c0.2-0.5,0.3-1.1,0.3-1.8
		v-9.2h2v9.2c0,0.9-0.1,1.7-0.4,2.4c-0.3,0.8-0.7,1.4-1.2,1.9c-0.5,0.5-1.2,1-1.9,1.3c-0.8,0.3-1.6,0.5-2.5,0.5
		c-0.9,0-1.8-0.2-2.5-0.5c-0.8-0.3-1.4-0.7-1.9-1.3c-0.5-0.5-0.9-1.2-1.2-1.9c-0.3-0.7-0.4-1.6-0.4-2.4v-9.2h2v9.2
		c0,0.6,0.1,1.2,0.3,1.8c0.2,0.5,0.4,1,0.8,1.4c0.3,0.4,0.8,0.7,1.3,0.9C235.5,82.6,236,82.8,236.7,82.8z"/>
	<path class="st2" d="M250,75.8h0.8c0.3,0,0.5,0,0.6-0.1c0.2-0.1,0.3-0.2,0.5-0.3l5.1-5.7c0.2-0.2,0.3-0.3,0.5-0.4
		c0.1-0.1,0.3-0.1,0.6-0.1h1.8l-5.8,6.5c-0.1,0.2-0.3,0.3-0.4,0.4c-0.1,0.1-0.3,0.2-0.4,0.3c0.2,0.1,0.4,0.2,0.5,0.3
		c0.1,0.1,0.3,0.3,0.5,0.5l6,7.2h-1.8c-0.1,0-0.2,0-0.3,0c-0.1,0-0.2,0-0.2-0.1c-0.1,0-0.1-0.1-0.2-0.1c-0.1-0.1-0.1-0.1-0.2-0.2
		l-5.3-6c-0.1-0.1-0.1-0.2-0.2-0.2c-0.1-0.1-0.1-0.1-0.2-0.2c-0.1,0-0.2-0.1-0.3-0.1c-0.1,0-0.3,0-0.4,0H250v7h-2V69.2h2V75.8z"/>
	<path class="st2" d="M266.1,84.4H264V69.2h2.1V84.4z"/>
	<path class="st2" d="M270,69.2h1.7c0.2,0,0.3,0,0.5,0.1c0.1,0.1,0.2,0.2,0.2,0.4l3.1,10.6c0.1,0.2,0.1,0.4,0.2,0.6
		c0,0.2,0.1,0.4,0.1,0.7c0-0.2,0.1-0.5,0.1-0.7c0-0.2,0.1-0.4,0.2-0.6l3.6-10.6c0-0.1,0.1-0.2,0.2-0.3s0.3-0.2,0.5-0.2h0.6
		c0.2,0,0.3,0,0.5,0.1c0.1,0.1,0.2,0.2,0.2,0.4l3.6,10.6c0.1,0.4,0.2,0.8,0.3,1.3c0-0.2,0.1-0.5,0.1-0.7c0-0.2,0.1-0.4,0.1-0.6
		l3.2-10.6c0-0.1,0.1-0.2,0.2-0.3c0.1-0.1,0.3-0.1,0.5-0.1h1.6l-4.7,15.2h-1.8l-3.9-11.6c-0.1-0.2-0.1-0.5-0.2-0.8
		c0,0.1-0.1,0.3-0.1,0.4c0,0.1-0.1,0.2-0.1,0.4l-3.9,11.6h-1.8L270,69.2z"/>
	<path class="st2" d="M306.3,84.4h-1.6c-0.2,0-0.3,0-0.4-0.1c-0.1-0.1-0.2-0.2-0.3-0.3l-1.4-3.7h-6.8l-1.4,3.7
		c0,0.1-0.1,0.2-0.3,0.3c-0.1,0.1-0.3,0.1-0.4,0.1H292l6.1-15.2h2.1L306.3,84.4z M296.3,78.7h5.7l-2.4-6.2c-0.2-0.4-0.3-0.9-0.5-1.4
		c-0.1,0.3-0.2,0.6-0.2,0.8c-0.1,0.2-0.1,0.5-0.2,0.6L296.3,78.7z"/>
	<path class="st2" d="M311.9,78v6.3h-2V69.2h4.3c1,0,1.8,0.1,2.5,0.3c0.7,0.2,1.3,0.5,1.7,0.8c0.5,0.4,0.8,0.8,1,1.3
		c0.2,0.5,0.3,1.1,0.3,1.7c0,0.5-0.1,1-0.3,1.5c-0.2,0.5-0.4,0.9-0.7,1.3s-0.7,0.7-1.2,1c-0.5,0.3-1,0.5-1.6,0.6
		c0.3,0.1,0.5,0.4,0.7,0.6l4.4,6h-1.8c-0.4,0-0.7-0.1-0.8-0.4l-3.9-5.4c-0.1-0.2-0.3-0.3-0.4-0.4c-0.1-0.1-0.4-0.1-0.6-0.1H311.9z
		 M311.9,76.5h2.2c0.6,0,1.1-0.1,1.6-0.2c0.5-0.1,0.8-0.3,1.1-0.6c0.3-0.3,0.5-0.6,0.7-1c0.2-0.4,0.2-0.8,0.2-1.2
		c0-0.9-0.3-1.6-0.9-2c-0.6-0.5-1.5-0.7-2.7-0.7h-2.2V76.5z"/>
	<path class="st2" d="M327.1,75.8h0.8c0.3,0,0.5,0,0.6-0.1c0.2-0.1,0.3-0.2,0.5-0.3l5.1-5.7c0.2-0.2,0.3-0.3,0.5-0.4
		c0.1-0.1,0.3-0.1,0.6-0.1h1.8l-5.8,6.5c-0.1,0.2-0.3,0.3-0.4,0.4c-0.1,0.1-0.3,0.2-0.4,0.3c0.2,0.1,0.4,0.2,0.5,0.3
		c0.1,0.1,0.3,0.3,0.5,0.5l6,7.2h-1.8c-0.1,0-0.2,0-0.3,0c-0.1,0-0.2,0-0.2-0.1c-0.1,0-0.1-0.1-0.2-0.1c-0.1-0.1-0.1-0.1-0.2-0.2
		l-5.3-6c-0.1-0.1-0.1-0.2-0.2-0.2c-0.1-0.1-0.1-0.1-0.2-0.2c-0.1,0-0.2-0.1-0.3-0.1c-0.1,0-0.3,0-0.4,0h-0.9v7h-2V69.2h2V75.8z"/>
	<path class="st2" d="M353.3,84.4h-1.6c-0.2,0-0.3,0-0.4-0.1c-0.1-0.1-0.2-0.2-0.3-0.3l-1.4-3.7h-6.8l-1.4,3.7
		c0,0.1-0.1,0.2-0.3,0.3c-0.1,0.1-0.3,0.1-0.4,0.1H339l6.1-15.2h2.1L353.3,84.4z M343.3,78.7h5.7l-2.4-6.2c-0.2-0.4-0.3-0.9-0.5-1.4
		c-0.1,0.3-0.2,0.6-0.2,0.8c-0.1,0.2-0.1,0.5-0.2,0.6L343.3,78.7z"/>
	<path class="st2" d="M375.4,76.8c0,1.1-0.2,2.2-0.5,3.1c-0.4,0.9-0.9,1.7-1.5,2.4c-0.7,0.7-1.4,1.2-2.4,1.5
		c-0.9,0.4-1.9,0.5-3.1,0.5h-5.7V69.2h5.7c1.1,0,2.1,0.2,3.1,0.5c0.9,0.4,1.7,0.9,2.4,1.6c0.7,0.7,1.2,1.5,1.5,2.4
		C375.3,74.6,375.4,75.7,375.4,76.8z M373.3,76.8c0-0.9-0.1-1.8-0.4-2.5c-0.3-0.7-0.6-1.4-1.1-1.9c-0.5-0.5-1-0.9-1.7-1.2
		c-0.7-0.3-1.4-0.4-2.2-0.4h-3.6v11.9h3.6c0.8,0,1.6-0.1,2.2-0.4c0.7-0.3,1.2-0.7,1.7-1.2c0.5-0.5,0.8-1.1,1.1-1.9
		C373.2,78.6,373.3,77.7,373.3,76.8z"/>
	<path class="st2" d="M393.9,76.8c0,1.1-0.2,2.2-0.5,3.1c-0.4,1-0.9,1.8-1.5,2.5c-0.7,0.7-1.4,1.2-2.4,1.6c-0.9,0.4-1.9,0.6-3.1,0.6
		c-1.1,0-2.1-0.2-3.1-0.6c-0.9-0.4-1.7-0.9-2.4-1.6c-0.7-0.7-1.2-1.5-1.5-2.5c-0.4-1-0.5-2-0.5-3.1c0-1.1,0.2-2.2,0.5-3.1
		c0.4-1,0.9-1.8,1.5-2.5c0.7-0.7,1.4-1.2,2.4-1.6c0.9-0.4,1.9-0.6,3.1-0.6c1.1,0,2.1,0.2,3.1,0.6c0.9,0.4,1.7,0.9,2.4,1.6
		c0.7,0.7,1.2,1.5,1.5,2.5C393.7,74.6,393.9,75.7,393.9,76.8z M391.7,76.8c0-0.9-0.1-1.8-0.4-2.5c-0.3-0.7-0.6-1.4-1.1-1.9
		c-0.5-0.5-1-0.9-1.7-1.2c-0.7-0.3-1.4-0.4-2.2-0.4c-0.8,0-1.6,0.1-2.2,0.4c-0.7,0.3-1.2,0.7-1.7,1.2c-0.5,0.5-0.8,1.1-1.1,1.9
		c-0.3,0.7-0.4,1.6-0.4,2.5c0,0.9,0.1,1.8,0.4,2.5c0.3,0.7,0.6,1.4,1.1,1.9c0.5,0.5,1,0.9,1.7,1.2c0.7,0.3,1.4,0.4,2.2,0.4
		c0.8,0,1.6-0.1,2.2-0.4c0.7-0.3,1.2-0.7,1.7-1.2c0.5-0.5,0.8-1.1,1.1-1.9S391.7,77.7,391.7,76.8z"/>
	<path class="st2" d="M407.5,69.2v1.7h-4.9v13.5h-2.1V70.9h-4.9v-1.7H407.5z"/>
	<path class="st2" d="M422.2,84.4h-1.6c-0.2,0-0.3,0-0.4-0.1c-0.1-0.1-0.2-0.2-0.3-0.3l-1.4-3.7h-6.8l-1.4,3.7
		c0,0.1-0.1,0.2-0.3,0.3c-0.1,0.1-0.3,0.1-0.4,0.1H408l6.1-15.2h2.1L422.2,84.4z M412.3,78.7h5.7l-2.4-6.2c-0.2-0.4-0.3-0.9-0.5-1.4
		c-0.1,0.3-0.2,0.6-0.2,0.8c-0.1,0.2-0.1,0.5-0.2,0.6L412.3,78.7z"/>
	<path class="st2" d="M435.9,81.2c0.1,0,0.2,0,0.3,0.1l0.8,0.9c-0.6,0.7-1.4,1.3-2.3,1.7s-2,0.6-3.2,0.6c-1.1,0-2.1-0.2-3-0.6
		c-0.9-0.4-1.7-0.9-2.3-1.6c-0.6-0.7-1.1-1.5-1.5-2.5c-0.3-1-0.5-2-0.5-3.2c0-1.1,0.2-2.2,0.6-3.2c0.4-1,0.9-1.8,1.6-2.5
		c0.7-0.7,1.5-1.2,2.4-1.6s2-0.6,3.1-0.6c1.1,0,2.1,0.2,2.9,0.5c0.8,0.3,1.5,0.8,2.2,1.4l-0.7,0.9c0,0.1-0.1,0.1-0.2,0.2
		c-0.1,0-0.2,0.1-0.3,0.1c-0.1,0-0.2,0-0.3-0.1c-0.1-0.1-0.2-0.1-0.4-0.3c-0.1-0.1-0.3-0.2-0.5-0.3c-0.2-0.1-0.4-0.2-0.7-0.3
		c-0.3-0.1-0.6-0.2-0.9-0.3c-0.3-0.1-0.7-0.1-1.2-0.1c-0.8,0-1.6,0.1-2.2,0.4c-0.7,0.3-1.3,0.7-1.7,1.2c-0.5,0.5-0.9,1.1-1.1,1.9
		c-0.3,0.7-0.4,1.6-0.4,2.5c0,0.9,0.1,1.8,0.4,2.5s0.6,1.4,1.1,1.9s1,0.9,1.7,1.2c0.6,0.3,1.3,0.4,2.1,0.4c0.5,0,0.9,0,1.2-0.1
		c0.4-0.1,0.7-0.1,1-0.3s0.6-0.3,0.9-0.4s0.5-0.4,0.8-0.6C435.7,81.3,435.8,81.2,435.9,81.2z"/>
	<path class="st2" d="M446.9,79.1c0,0.8-0.1,1.6-0.3,2.3c-0.2,0.7-0.5,1.2-0.9,1.7c-0.4,0.5-0.9,0.8-1.5,1.1c-0.6,0.2-1.3,0.4-2,0.4
		c-0.7,0-1.4-0.1-2.1-0.3c0-0.2,0-0.4,0.1-0.6c0-0.2,0-0.4,0.1-0.6c0-0.1,0.1-0.2,0.1-0.3c0.1-0.1,0.2-0.1,0.3-0.1
		c0.1,0,0.3,0,0.5,0.1c0.2,0.1,0.5,0.1,0.8,0.1c0.5,0,0.9-0.1,1.2-0.2c0.4-0.1,0.7-0.4,0.9-0.7c0.3-0.3,0.4-0.7,0.6-1.1
		c0.1-0.5,0.2-1,0.2-1.7v-10h2V79.1z"/>
	<path class="st2" d="M454.5,84.4h-2.1V69.2h2.1V84.4z"/>
</g>
</svg>
