<?xml version="1.0" encoding="utf-8"?>
<!-- Generator: Adobe Illustrator 20.1.0, SVG Export Plug-In . SVG Version: 6.00 Build 0)  -->
<!DOCTYPE svg PUBLIC "-//W3C//DTD SVG 1.1//EN" "http://www.w3.org/Graphics/SVG/1.1/DTD/svg11.dtd">
<svg version="1.1" id="Layer_1" xmlns="http://www.w3.org/2000/svg" xmlns:xlink="http://www.w3.org/1999/xlink" x="0px" y="0px"
	 viewBox="0 0 200 153.7" style="enable-background:new 0 0 200 153.7;" xml:space="preserve">
<style type="text/css">
	.st0{fill:url(#SVGID_1_);}
	.st1{fill:url(#SVGID_2_);}
	.st2{fill:#BBBDBF;}
	.st3{fill:#0F3F76;}
	.st4{fill:#FFFFFF;}
</style>
<g>
	<g>
		<g>
			<path class="st4" d="M79.5,39.8c4.5-12.9,16.8-22.2,31.2-22.2c10.5,0,20,4.9,26.2,12.9h16.8c-8.1-17.2-25.7-28.2-45.3-27.2
				c-21.4,1-39,16.5-43.8,36.5H79.5z"/>
			<path class="st4" d="M31.8,43.4c0,8,6.4,14.4,14.4,14.4H143c-3.6,16-18.8,27.7-36.2,25.6C94,82,83.4,73,79.4,61.2h-15
				c5,21.8,25,37.9,48.5,36.8c24.9-1.1,45.3-23.4,45.3-48.4v-6.2H31.8z"/>
		</g>
		<path class="st4" d="M83,7.3H1.5c0,8,6.4,14.4,14.4,14.4h52.2C72.1,15.9,77.2,11,83,7.3z"/>
		<path class="st4" d="M60.6,38.8c1.1-4.8,3-9.3,5.3-13.5H14.5c0,8,6.4,14.4,14.4,14.4h31.5L60.6,38.8z"/>
	</g>
	<g>
		<path class="st4" d="M34.8,145.4c1.2,0,2.2-0.1,3.1-0.3c0.9-0.2,1.8-0.5,2.6-0.8v-5.6h-3.6c-0.5,0-1-0.1-1.3-0.4
			c-0.3-0.3-0.5-0.6-0.5-1.1v-4.7h13V148c-0.9,0.7-1.9,1.3-2.9,1.8c-1,0.5-2.1,0.9-3.2,1.2c-1.1,0.3-2.4,0.6-3.7,0.7
			c-1.3,0.2-2.7,0.2-4.2,0.2c-2.7,0-5.2-0.5-7.4-1.4c-2.3-0.9-4.3-2.3-5.9-3.9c-1.7-1.7-3-3.6-3.9-5.9c-0.9-2.3-1.4-4.8-1.4-7.5
			c0-2.7,0.5-5.2,1.4-7.5c0.9-2.3,2.2-4.3,3.9-5.9c1.7-1.7,3.7-3,6.1-3.9s5.1-1.4,8-1.4c1.5,0,3,0.1,4.3,0.4c1.3,0.3,2.6,0.6,3.7,1
			c1.1,0.4,2.2,1,3.1,1.6c0.9,0.6,1.8,1.3,2.5,2l-2.5,3.8c-0.2,0.4-0.5,0.6-0.8,0.8c-0.3,0.2-0.7,0.3-1.1,0.3c-0.5,0-1-0.2-1.6-0.5
			c-0.7-0.4-1.3-0.8-1.9-1c-0.6-0.3-1.2-0.5-1.8-0.7c-0.6-0.2-1.3-0.3-2-0.4c-0.7-0.1-1.5-0.1-2.3-0.1c-1.6,0-3,0.3-4.3,0.8
			c-1.3,0.6-2.4,1.4-3.3,2.4c-0.9,1-1.6,2.3-2.1,3.7c-0.5,1.4-0.7,3-0.7,4.8c0,1.9,0.3,3.7,0.8,5.2c0.5,1.5,1.3,2.8,2.2,3.8
			c0.9,1,2.1,1.8,3.4,2.4C31.8,145.2,33.3,145.4,34.8,145.4z"/>
		<path class="st4" d="M64.4,138v13.6h-8.5v-36.7h11.9c2.7,0,4.9,0.3,6.8,0.8c1.9,0.5,3.4,1.3,4.6,2.3c1.2,1,2,2.1,2.6,3.4
			c0.5,1.3,0.8,2.8,0.8,4.3c0,1.2-0.2,2.3-0.5,3.4c-0.3,1.1-0.8,2-1.4,2.9c-0.6,0.9-1.4,1.7-2.3,2.4c-0.9,0.7-2,1.3-3.2,1.7
			c0.6,0.3,1.1,0.6,1.6,1.1c0.5,0.4,0.9,0.9,1.3,1.5l7.8,12.8h-7.7c-1.4,0-2.4-0.5-3.1-1.6L69,139.3c-0.3-0.5-0.6-0.8-0.9-1
			c-0.4-0.2-0.9-0.3-1.5-0.3H64.4z M64.4,132.1h3.4c1.2,0,2.1-0.1,3-0.4c0.8-0.3,1.5-0.7,2-1.2c0.5-0.5,0.9-1.1,1.1-1.8
			c0.2-0.7,0.4-1.4,0.4-2.3c0-1.6-0.5-2.9-1.6-3.8c-1-0.9-2.7-1.4-4.9-1.4h-3.4V132.1z"/>
		<path class="st4" d="M126,151.6h-6.6c-0.7,0-1.3-0.2-1.8-0.5c-0.5-0.3-0.8-0.8-1-1.3l-2.2-6.4h-13.9l-2.2,6.4
			c-0.2,0.5-0.5,0.9-1,1.3c-0.5,0.4-1.1,0.6-1.8,0.6h-6.6l14.2-36.7h8.7L126,151.6z M102.4,137.5h10l-3.4-10
			c-0.2-0.6-0.5-1.4-0.8-2.3s-0.6-1.8-0.9-2.8c-0.3,1-0.5,2-0.8,2.8c-0.3,0.9-0.6,1.6-0.8,2.3L102.4,137.5z"/>
		<path class="st4" d="M136.9,115c0.3,0,0.5,0.1,0.7,0.2c0.2,0.1,0.4,0.2,0.6,0.4c0.2,0.2,0.4,0.4,0.6,0.7l17.4,22
			c-0.1-0.7-0.1-1.4-0.2-2.1c0-0.7-0.1-1.3-0.1-1.9v-19.4h7.5v36.7h-4.4c-0.7,0-1.2-0.1-1.7-0.3c-0.5-0.2-0.9-0.6-1.3-1.1
			l-17.3-21.8c0,0.6,0.1,1.3,0.1,1.9c0,0.6,0.1,1.2,0.1,1.7v19.7h-7.5v-36.7h4.5C136.3,114.9,136.6,114.9,136.9,115z"/>
		<path class="st4" d="M198.7,114.9v6.7h-10.3v29.9h-8.5v-29.9h-10.3v-6.7H198.7z"/>
	</g>
</g>
</svg>
